<?xml version="1.0" encoding="UTF-8"?>
<svg version="1.1" xmlns="http://www.w3.org/2000/svg" width="512" height="512">
<path d="M0 0 C1.01790619 0.00215515 2.03581238 0.0043103 3.08456421 0.00653076 C17.69363523 0.05620146 32.02575853 0.30709809 46.375 3.3125 C47.34985352 3.51117676 48.32470703 3.70985352 49.32910156 3.91455078 C97.7109774 14.03517194 141.69928269 35.9516877 177.375 70.3125 C178.3640332 71.26068604 178.3640332 71.26068604 179.37304688 72.22802734 C188.86130305 81.37247479 197.6012044 90.66984009 205.375 101.3125 C206.23306152 102.46355017 207.09113451 103.61459177 207.94921875 104.765625 C213.98736829 112.95680614 219.34595521 121.47054105 224.375 130.3125 C224.73948242 130.94430176 225.10396484 131.57610352 225.47949219 132.22705078 C247.08534998 169.97532572 256.85198095 212.74189997 256.6875 255.9375 C256.68534485 256.95540619 256.6831897 257.97331238 256.68096924 259.02206421 C256.63129854 273.63113523 256.38040191 287.96325853 253.375 302.3125 C253.07698486 303.77478027 253.07698486 303.77478027 252.77294922 305.26660156 C242.65232806 353.6484774 220.7358123 397.63678269 186.375 433.3125 C185.74287598 433.97185547 185.11075195 434.63121094 184.45947266 435.31054688 C175.31502521 444.79880305 166.01765991 453.5387044 155.375 461.3125 C154.22394983 462.17056152 153.07290823 463.02863451 151.921875 463.88671875 C143.73224019 469.92427396 135.22961724 475.30707302 126.375 480.3125 C125.66778809 480.7146875 124.96057617 481.116875 124.23193359 481.53125 C101.09654164 494.5566741 75.92537591 503.30551461 49.9375 508.625 C49.21860596 508.77235596 48.49971191 508.91971191 47.7590332 509.0715332 C33.08339502 511.86090125 18.55831162 512.66142619 3.64770508 512.62817383 C0.70811513 512.6250221 -2.2304558 512.64854926 -5.16992188 512.67382812 C-18.54306192 512.71848737 -31.43916711 511.51301542 -44.625 509.3125 C-46.33055054 509.03031616 -46.33055054 509.03031616 -48.07055664 508.74243164 C-91.33802759 500.97044532 -132.38793216 480.98345309 -165.625 452.3125 C-166.37007813 451.67828125 -167.11515625 451.0440625 -167.8828125 450.390625 C-181.38779833 438.57948485 -194.05918743 425.82889772 -204.625 411.3125 C-205.48149066 410.16255169 -206.33826433 409.01281411 -207.1953125 407.86328125 C-213.23534209 399.67315742 -218.61867614 391.16870382 -223.625 382.3125 C-224.0271875 381.60528809 -224.429375 380.89807617 -224.84375 380.16943359 C-237.8691741 357.03404164 -246.61801461 331.86287591 -251.9375 305.875 C-252.08485596 305.15610596 -252.23221191 304.43721191 -252.3840332 303.6965332 C-255.35789088 288.05024391 -255.99800362 272.57681954 -255.9375 256.6875 C-255.93534485 255.66959381 -255.9331897 254.65168762 -255.93096924 253.60293579 C-255.88129854 238.99386477 -255.63040191 224.66174147 -252.625 210.3125 C-252.42632324 209.33764648 -252.22764648 208.36279297 -252.02294922 207.35839844 C-241.90232806 158.9765226 -219.9858123 114.98821731 -185.625 79.3125 C-184.99287598 78.65314453 -184.36075195 77.99378906 -183.70947266 77.31445312 C-174.56502521 67.82619695 -165.26765991 59.0862956 -154.625 51.3125 C-153.47394983 50.45443848 -152.32290823 49.59636549 -151.171875 48.73828125 C-142.98224019 42.70072604 -134.47961724 37.31792698 -125.625 32.3125 C-124.91778809 31.9103125 -124.21057617 31.508125 -123.48193359 31.09375 C-100.34654164 18.0683259 -75.17537591 9.31948539 -49.1875 4 C-48.46860596 3.85264404 -47.74971191 3.70528809 -47.0090332 3.5534668 C-31.36274391 0.57960912 -15.88931954 -0.06050362 0 0 Z M-27.625 122.3125 C-28.3154541 122.46283691 -29.0059082 122.61317383 -29.71728516 122.76806641 C-54.52759408 128.45265539 -75.52483841 141.88559192 -93.625 159.3125 C-94.39199219 160.00472656 -95.15898437 160.69695312 -95.94921875 161.41015625 C-117.80202486 181.77210665 -132.49987221 215.47742844 -133.74926758 245.27636719 C-134.74271422 286.97036928 -123.2954754 322.49835345 -94.1237793 353.15112305 C-69.50449254 378.34045493 -35.18015551 393.10688059 0.0390625 393.55395508 C23.43745921 393.61745879 45.43129381 390.19703696 66.375 379.3125 C67.50421875 378.72726562 68.6334375 378.14203125 69.796875 377.5390625 C98.16093762 362.32385075 118.60546398 336.74041259 128.078125 306.03320312 C128.7895049 303.61253543 129.46651328 301.18556919 130.125 298.75 C130.32383789 298.01934326 130.52267578 297.28868652 130.72753906 296.53588867 C133.83860397 284.3651146 134.69937611 272.27617599 134.625 259.75 C134.63273437 258.44353516 134.64046875 257.13707031 134.6484375 255.79101562 C134.64585937 254.49744141 134.64328125 253.20386719 134.640625 251.87109375 C134.63724121 250.15877563 134.63724121 250.15877563 134.63378906 248.41186523 C134.27156202 242.67398386 133.24922291 236.99494889 132.375 231.3125 C89.805 231.3125 47.235 231.3125 3.375 231.3125 C3.375 248.4725 3.375 265.6325 3.375 283.3125 C28.125 283.3125 52.875 283.3125 78.375 283.3125 C74.82758922 295.37369664 72.38322754 303.55403178 65.375 313.3125 C64.89289063 313.99699219 64.41078125 314.68148437 63.9140625 315.38671875 C53.19469565 329.17318767 34.79738973 335.99886069 18.1796875 338.86328125 C-4.8464257 341.58197018 -26.96321709 337.97625058 -45.6875 323.6875 C-47.00789595 322.5717779 -48.32118496 321.44755401 -49.625 320.3125 C-50.21152344 319.86777344 -50.79804688 319.42304688 -51.40234375 318.96484375 C-66.3298232 307.35458196 -75.06615058 287.13321845 -78.20703125 268.94140625 C-81.04095592 244.33658365 -74.6921023 221.32814528 -59.4375 201.6875 C-46.1850343 186.18166892 -28.67047905 176.87991576 -8.625 173.3125 C12.90315698 171.79849148 33.21479199 174.32032176 50.5 188.25 C51.16257812 188.83652344 51.82515625 189.42304688 52.5078125 190.02734375 C54.54637355 191.69047838 54.54637355 191.69047838 58.375 191.3125 C60.31846949 189.94877989 60.31846949 189.94877989 62.13378906 188.0078125 C63.21445648 186.92669189 63.21445648 186.92669189 64.31695557 185.82373047 C65.08376648 185.03627441 65.85057739 184.24881836 66.640625 183.4375 C67.43402283 182.63844238 68.22742065 181.83938477 69.04486084 181.01611328 C71.58109402 178.45745877 74.10308273 175.88525851 76.625 173.3125 C78.34022667 171.57721598 80.05636147 169.84282909 81.7734375 168.109375 C85.98455802 163.85411058 90.18406031 159.58763651 94.375 155.3125 C70.01725317 130.92754887 37.59458998 119.17615303 3.375 118.9375 C-7.17266271 119.01106113 -17.32811696 120.03377605 -27.625 122.3125 Z " fill="#000000" transform="translate(255.625,-0.3125)"/>
</svg>
